
<svg fill="#1c71d8" height="50px" width="50px" version="1.1" id="Capa_1" xmlns="http://www.w3.org/2000/svg" xmlnsxlink="http://www.w3.org/1999/xlink" viewBox="0 0 60 60" xmlspace="preserve">

<g id="SVGRepo_bgCarrier" stroke-width="0"/>

<g id="SVGRepo_tracerCarrier" stroke-linecap="round" stroke-linejoin="round"/>

<g id="SVGRepo_iconCarrier"> <g> <g> <path d="M21,37.5h-2.09c-0.154-0.909-0.51-1.749-1.024-2.471l1.479-1.479c0.391-0.391,0.391-1.023,0-1.414s-1.024-0.391-1.414,0 l-1.479,1.479C15.749,33.1,14.909,32.744,14,32.59V30.5c0-0.553-0.448-1-1-1s-1,0.447-1,1v2.09 c-0.909,0.154-1.749,0.51-2.471,1.025L8.05,32.136c-0.39-0.391-1.023-0.391-1.414,0c-0.391,0.391-0.391,1.023,0,1.414l1.479,1.479 C7.6,35.751,7.244,36.591,7.09,37.5H5c-0.552,0-1,0.447-1,1s0.448,1,1,1h2.09c0.154,0.909,0.51,1.749,1.024,2.471L6.636,43.45 c-0.391,0.391-0.391,1.023,0,1.414c0.195,0.195,0.451,0.293,0.707,0.293s0.512-0.098,0.707-0.293l1.479-1.479 C10.251,43.9,11.091,44.256,12,44.41v2.09c0,0.553,0.448,1,1,1s1-0.447,1-1v-2.09c0.909-0.154,1.749-0.51,2.471-1.025l1.479,1.479 c0.195,0.195,0.451,0.293,0.707,0.293s0.512-0.098,0.707-0.293c0.391-0.391,0.391-1.023,0-1.414l-1.479-1.479 c0.515-0.722,0.871-1.562,1.024-2.471H21c0.552,0,1-0.447,1-1S21.552,37.5,21,37.5z M13,42.5c-2.206,0-4-1.794-4-4s1.794-4,4-4 s4,1.794,4,4S15.206,42.5,13,42.5z"/> <path d="M52,24.5h-2.09c-0.154-0.909-0.51-1.749-1.024-2.471l1.479-1.479c0.391-0.391,0.391-1.023,0-1.414s-1.024-0.391-1.414,0 l-1.479,1.479C46.749,20.1,45.909,19.744,45,19.59V17.5c0-0.553-0.448-1-1-1s-1,0.447-1,1v2.09 c-0.909,0.154-1.749,0.51-2.471,1.025l-1.479-1.479c-0.39-0.391-1.023-0.391-1.414,0s-0.391,1.023,0,1.414l1.479,1.479 c-0.515,0.722-0.871,1.562-1.024,2.471H36c-0.552,0-1,0.447-1,1s0.448,1,1,1h2.09c0.154,0.909,0.51,1.749,1.024,2.471 l-1.479,1.479c-0.391,0.391-0.391,1.023,0,1.414c0.195,0.195,0.451,0.293,0.707,0.293s0.512-0.098,0.707-0.293l1.479-1.479 C41.251,30.9,42.091,31.256,43,31.41v2.09c0,0.553,0.448,1,1,1s1-0.447,1-1v-2.09c0.909-0.154,1.749-0.51,2.471-1.025l1.479,1.479 c0.195,0.195,0.451,0.293,0.707,0.293s0.512-0.098,0.707-0.293c0.391-0.391,0.391-1.023,0-1.414l-1.479-1.479 c0.515-0.722,0.871-1.562,1.024-2.471H52c0.552,0,1-0.447,1-1S52.552,24.5,52,24.5z M44,29.5c-2.206,0-4-1.794-4-4s1.794-4,4-4 s4,1.794,4,4S46.206,29.5,44,29.5z"/> <path d="M21.048,20.5H18v-10c0-0.553-0.448-1-1-1H9c-0.552,0-1,0.447-1,1v10H4.952C2.222,20.5,0,22.722,0,25.452v27.096 c0,2.73,2.222,4.952,4.952,4.952h16.096c2.73,0,4.952-2.222,4.952-4.952V25.452C26,22.722,23.779,20.5,21.048,20.5z M16,11.5v4h-6 v-4H16z M10,17.5h6v3h-6V17.5z M24,52.548c0,1.628-1.324,2.952-2.952,2.952H4.952C3.324,55.5,2,54.176,2,52.548V25.452 C2,23.824,3.324,22.5,4.952,22.5H9h8h4.048c1.627,0,2.952,1.324,2.952,2.952V52.548z"/> <circle cx="13" cy="13.5" r="1"/> <path d="M60,6.5c0-2.206-1.794-4-4-4c-1.193,0-2.267,0.525-3,1.357C52.267,3.025,51.193,2.5,50,2.5s-2.267,0.525-3,1.357 C46.267,3.025,45.193,2.5,44,2.5s-2.267,0.525-3,1.357C40.267,3.025,39.193,2.5,38,2.5s-2.267,0.525-3,1.357 C34.267,3.025,33.193,2.5,32,2.5c-2.115,0-3.853,1.65-3.991,3.731c-0.039,0.138-0.047,0.284-0.023,0.43l0.078,0.485 c0.012,0.084,0.025,0.167,0.033,0.197L35,46.587V56.5c0,0.553,0.448,1,1,1h15c0.552,0,1-0.447,1-1v-9.901l7.777-38.815 C59.925,7.353,60,6.921,60,6.5z M30,6.5c0-1.103,0.897-2,2-2s2,0.897,2,2c0,0.553,0.448,1,1,1s1-0.447,1-1c0-1.103,0.897-2,2-2 s2,0.897,2,2c0,0.553,0.448,1,1,1s1-0.447,1-1c0-1.103,0.897-2,2-2s2,0.897,2,2c0,0.553,0.448,1,1,1s1-0.447,1-1 c0-1.103,0.897-2,2-2s2,0.897,2,2c0,0.553,0.448,1,1,1s1-0.447,1-1c0-1.103,0.897-2,2-2s2,0.897,2,2 c0,0.216-0.042,0.438-0.129,0.678c-0.017,0.047-0.031,0.096-0.041,0.145L57.394,9.5H30.505l-0.449-2.553l-0.059-0.374 C29.999,6.549,30,6.524,30,6.5z M37,47.5h13v3H37V47.5z M50.181,45.5H36.839l-5.982-34h26.136L50.181,45.5z M37,55.5v-3h13v3H37z"/> </g> </g> </g>

</svg>